<?xml version="1.0" encoding="iso-8859-1"?>
<!-- Generated for NFCReserve -->
<!DOCTYPE svg PUBLIC "-//W3C//DTD SVG 1.1//EN" "http://www.w3.org/Graphics/SVG/1.1/DTD/svg11.dtd">
<svg version="1.1" id="Capa_1" xmlns="http://www.w3.org/2000/svg" xmlns:xlink="http://www.w3.org/1999/xlink"
	 width="800px" height="800px" viewBox="0 0 325.303 325.303"
	 xml:space="preserve">
	<g fill="none" stroke="#000000" stroke-width="14" stroke-linecap="round" stroke-linejoin="round">
		<!-- Mattress outer -->
		<path d="M81 20 H244 A26 26 0 0 1 270 46 V279 A26 26 0 0 1 244 305 H81 A26 26 0 0 1 55 279 V46 A26 26 0 0 1 81 20 Z"/>

		<!-- Pillow -->
		<path d="M119 55 H206 A14 14 0 0 1 220 69 V96 A14 14 0 0 1 206 110 H119 A14 14 0 0 1 105 96 V69 A14 14 0 0 1 119 55 Z"/>

		<!-- Seam line -->
		<path d="M70 155 H255"/>

		<!-- Fold / blanket corner -->
		<path d="M70 155 Q78 198 120 214 L255 155"/>
	</g>
</svg>
